<svg width="297" height="303" viewBox="0 0 297 303" fill="none" xmlns="http://www.w3.org/2000/svg">
<g clip-path="url(#clip0_255_27)">
<path fill-rule="evenodd" clip-rule="evenodd" d="M297 63.747C285.933 61.3586 274.801 61.7338 265.845 64.3969C259.234 66.3635 253.942 69.5327 249.918 72.6156C248.071 74.3414 245.369 76.7613 241.982 79.5167C238.151 82.6372 234.326 85.4205 230.572 87.9307C229.852 81.5246 229.645 75.4169 230.306 70.3469C230.311 70.3249 230.323 70.2216 230.341 70.0578C230.362 69.8758 230.392 69.6192 230.429 69.317C230.605 67.8571 230.84 65.1823 230.774 61.8452C230.774 61.8452 230.624 53.1923 228.011 44.8764C218.077 13.352 184.479 -4.16788 152.962 5.76264C117.474 16.9282 107.216 56.562 113.856 80.8084C115.676 87.4688 118.73 92.8258 121.721 96.9069C123.4 98.7947 125.779 101.554 128.453 105.003C132.087 109.691 135.263 114.345 138.048 118.883C130.118 119.621 122.817 119.88 116.301 119.847C114.212 119.791 112.13 119.732 110.042 119.658C104.919 119.651 98.7342 120.339 92.2317 122.827C68.7179 131.805 42.8407 163.486 54.782 198.703C66.7232 233.92 106.538 243.343 130.679 236.163C137.346 234.186 142.674 230.97 146.729 227.851C147.935 226.823 149.701 225.34 151.889 223.635C154.511 221.587 158.784 218.351 165.844 214.264C166.154 220.474 166.189 226.253 166.052 231.524C165.96 233.146 165.874 234.772 165.789 236.395C165.765 236.857 165.74 237.319 165.716 237.781C165.596 242.9 166.158 249.093 168.495 255.655C176.962 279.36 208.085 305.924 243.54 294.762C279.008 283.586 289.303 243.983 282.654 219.713C280.813 212.991 277.721 207.596 274.691 203.476C273.692 202.251 272.249 200.455 270.583 198.228C268.339 195.234 264.693 190.155 260.07 181.386C266.907 180.417 273.466 179.997 278.86 180.574C278.904 180.576 279.323 180.623 279.892 180.679C281.362 180.808 284.034 180.985 287.374 180.849C287.374 180.849 291.617 180.684 297 179.622L297 63.747Z" fill="white" fill-opacity="0.1"/>
</g>
<defs>
<clipPath id="clip0_255_27">
<rect width="297" height="303" fill="white"/>
</clipPath>
</defs>
</svg>
