<svg width="420" height="334" viewBox="0 0 420 334" fill="none" xmlns="http://www.w3.org/2000/svg">
<g clip-path="url(#clip0_167_827)">
<path d="M280.86 231.62C280.23 233.67 279.51 235.69 278.71 237.66C315.94 259.85 353.17 282.04 390.39 304.22C388.7 312.17 384.33 327.59 371.97 342.81C359.09 358.66 344.15 366.15 336.62 369.32C307.94 336.82 279.26 304.3 250.58 271.8C244.93 275.5 238.73 278.46 232.14 280.5C238.76 323.39 245.37 366.29 251.99 409.17C244.79 412.94 230.11 419.38 210.52 419.55C190.09 419.71 174.8 412.96 167.56 409.17C174.36 366.28 181.17 323.38 187.99 280.5C184.13 279.3 180.42 277.79 176.88 276C152.25 311.8 127.63 347.59 102.99 383.39C95.14 381.14 79.4 375.5 64.71 361.31C50.62 347.7 44.42 332.9 41.79 325.21C76.24 298.6 110.68 272 145.12 245.4C142.72 241.03 140.74 236.39 139.26 231.53C96.29 238.35 53.34 245.17 10.38 251.99C6.58999 244.75 -0.160014 229.45 -1.35261e-05 209.03C0.149986 189.44 6.60999 174.76 10.37 167.56C53.38 174.2 96.41 180.83 139.43 187.46C140.53 183.98 141.87 180.61 143.45 177.37C106.39 155.51 69.32 133.63 32.26 111.77C33.96 103.79 38.49 87.6899 51.62 72.0499C64.23 57.0399 78.55 49.8299 86.03 46.6699C115.27 79.5199 144.52 112.37 173.75 145.22C178.22 142.69 182.98 140.62 187.98 139.07C181.18 96.1599 174.36 53.2699 167.55 10.3799C174.79 6.58986 190.08 -0.160136 210.51 -0.000135596C230.1 0.159864 244.78 6.60986 251.98 10.3699C245.36 53.2699 238.75 96.1599 232.13 139.06C235.64 140.15 239.03 141.49 242.29 143.07C267.05 107.43 291.81 71.7899 316.55 36.1599C324.36 38.3899 339.44 43.8299 353.75 57.2199C368.67 71.1699 375.11 86.5999 377.74 94.3299C343.34 120.67 308.94 147 274.54 173.32C277.05 177.74 279.11 182.44 280.66 187.36C323.49 180.75 366.32 174.15 409.16 167.54C412.92 174.74 419.36 189.42 419.53 209.01C419.69 229.44 412.94 244.73 409.16 251.97C366.38 245.19 323.62 238.39 280.84 231.6L280.86 231.62Z" fill="white"/>
</g>
<defs>
<clipPath id="clip0_167_827">
<rect width="420" height="334" fill="white"/>
</clipPath>
</defs>
</svg>
