<svg width="21" height="24" viewBox="0 0 21 24" fill="none" xmlns="http://www.w3.org/2000/svg">
<g clip-path="url(#clip0_167_975)">
<path d="M10.5047 6.60928C7.52344 6.60928 5.11876 9.01396 5.11876 11.9952C5.11876 14.9765 7.52344 17.3812 10.5047 17.3812C13.4859 17.3812 15.8906 14.9765 15.8906 11.9952C15.8906 9.01396 13.4859 6.60928 10.5047 6.60928ZM10.5047 15.4968C8.57813 15.4968 7.00313 13.9265 7.00313 11.9952C7.00313 10.064 8.57344 8.49365 10.5047 8.49365C12.4359 8.49365 14.0063 10.064 14.0063 11.9952C14.0063 13.9265 12.4313 15.4968 10.5047 15.4968ZM17.3672 6.38896C17.3672 7.0874 16.8047 7.64522 16.1109 7.64522C15.4125 7.64522 14.8547 7.08271 14.8547 6.38896C14.8547 5.69521 15.4172 5.13271 16.1109 5.13271C16.8047 5.13271 17.3672 5.69521 17.3672 6.38896ZM20.9344 7.66397C20.8547 5.98115 20.4703 4.49053 19.2375 3.2624C18.0094 2.03428 16.5188 1.6499 14.8359 1.56553C13.1016 1.46709 7.90313 1.46709 6.16876 1.56553C4.49063 1.64521 3.00001 2.02959 1.76719 3.25771C0.534381 4.48584 0.154694 5.97646 0.0703186 7.65928C-0.0281189 9.39365 -0.0281189 14.5921 0.0703186 16.3265C0.150006 18.0093 0.534381 19.4999 1.76719 20.728C3.00001 21.9562 4.48594 22.3405 6.16876 22.4249C7.90313 22.5233 13.1016 22.5233 14.8359 22.4249C16.5188 22.3452 18.0094 21.9608 19.2375 20.728C20.4656 19.4999 20.85 18.0093 20.9344 16.3265C21.0328 14.5921 21.0328 9.39834 20.9344 7.66397ZM18.6938 18.1874C18.3281 19.1062 17.6203 19.814 16.6969 20.1843C15.3141 20.7327 12.0328 20.6062 10.5047 20.6062C8.97657 20.6062 5.69063 20.728 4.31251 20.1843C3.39376 19.8187 2.68594 19.1108 2.31563 18.1874C1.76719 16.8046 1.89376 13.5233 1.89376 11.9952C1.89376 10.4671 1.77188 7.18115 2.31563 5.80303C2.68126 4.88428 3.38907 4.17646 4.31251 3.80615C5.69532 3.25771 8.97657 3.38428 10.5047 3.38428C12.0328 3.38428 15.3188 3.2624 16.6969 3.80615C17.6156 4.17178 18.3234 4.87959 18.6938 5.80303C19.2422 7.18584 19.1156 10.4671 19.1156 11.9952C19.1156 13.5233 19.2422 16.8093 18.6938 18.1874Z" fill="white"/>
</g>
<defs>
<clipPath id="clip0_167_975">
<rect width="21" height="24" fill="white"/>
</clipPath>
</defs>
</svg>
