<svg width="23" height="24" viewBox="0 0 23 24" fill="none" xmlns="http://www.w3.org/2000/svg">
<g clip-path="url(#clip0_167_959)">
<path d="M11.5 0.375C5.15181 0.375 0 5.58281 0 12C0 18.4172 5.15181 23.625 11.5 23.625C17.8482 23.625 23 18.4172 23 12C23 5.58281 17.8482 0.375 11.5 0.375ZM16.1696 17.4797C15.9748 17.4797 15.8542 17.4187 15.6734 17.3109C12.7798 15.5484 9.41331 15.4734 6.08851 16.1625C5.90766 16.2094 5.67117 16.2844 5.53669 16.2844C5.0869 16.2844 4.80403 15.9234 4.80403 15.5438C4.80403 15.0609 5.08689 14.8312 5.43468 14.7562C9.23246 13.9078 13.1137 13.9828 16.4246 15.9844C16.7075 16.1672 16.8744 16.3313 16.8744 16.7578C16.8744 17.1844 16.5452 17.4797 16.1696 17.4797ZM17.4169 14.4047C17.1758 14.4047 17.0135 14.2969 16.8466 14.2078C13.9484 12.4734 9.62661 11.775 5.78246 12.8297C5.55988 12.8906 5.43931 12.9516 5.23065 12.9516C4.73448 12.9516 4.33105 12.5437 4.33105 12.0422C4.33105 11.5406 4.57218 11.2078 5.0498 11.0719C6.33891 10.7063 7.65585 10.4344 9.58488 10.4344C12.5944 10.4344 15.5018 11.1891 17.7925 12.5672C18.1681 12.7922 18.3165 13.0828 18.3165 13.4906C18.3119 13.9969 17.9224 14.4047 17.4169 14.4047ZM18.8544 10.8328C18.6133 10.8328 18.4649 10.7719 18.2563 10.65C14.9546 8.65781 9.05161 8.17969 5.23065 9.25781C5.06371 9.30469 4.85504 9.37969 4.63246 9.37969C4.02036 9.37969 3.55202 8.89688 3.55202 8.27344C3.55202 7.63594 3.94153 7.275 4.35887 7.15313C5.99113 6.67031 7.81815 6.44062 9.80746 6.44062C13.1925 6.44062 16.7399 7.15312 19.3321 8.68125C19.6938 8.89219 19.9302 9.18281 19.9302 9.74063C19.9302 10.3781 19.4202 10.8328 18.8544 10.8328Z" fill="white"/>
</g>
<defs>
<clipPath id="clip0_167_959">
<rect width="23" height="24" fill="white"/>
</clipPath>
</defs>
</svg>
