<svg width="20" height="20" viewBox="0 0 20 20" fill="none" xmlns="http://www.w3.org/2000/svg">
<path d="M9.90992 5.38951e-05C4.44992 5.38951e-05 -7.79629e-05 4.45005 -7.79629e-05 9.91005C-7.79629e-05 11.6601 0.459922 13.3601 1.31992 14.8601L0.602196 17.4951C0.298852 18.6088 1.31445 19.6335 2.4308 19.3401L5.16992 18.6201C6.61992 19.4101 8.24992 19.8301 9.90992 19.8301C15.3699 19.8301 19.8199 15.3801 19.8199 9.92005C19.8199 7.27005 18.7899 4.78005 16.9199 2.91005C16.003 1.98416 14.9109 1.25002 13.7074 0.750416C12.5039 0.250812 11.213 -0.00426317 9.90992 5.38951e-05ZM9.91992 1.67005C12.1199 1.67005 14.1799 2.53005 15.7399 4.09005C16.5053 4.85557 17.1122 5.76457 17.5257 6.76497C17.9392 7.76538 18.1514 8.83754 18.1499 9.92005C18.1499 14.4601 14.4499 18.1501 9.90992 18.1501C8.42992 18.1501 6.97992 17.7601 5.71992 17.0001L5.41992 16.8301L3.13744 17.4299C2.7652 17.5278 2.42663 17.186 2.52801 16.8147L3.12992 14.6101L2.92992 14.2901C2.10447 12.9785 1.66759 11.4598 1.66992 9.91005C1.67992 5.37005 5.36992 1.67005 9.91992 1.67005ZM6.39992 5.33005C6.23992 5.33005 5.96992 5.39005 5.73992 5.64005C5.51992 5.89005 4.86992 6.50005 4.86992 7.71005C4.86992 8.93005 5.75992 10.1001 5.86992 10.2701C6.00992 10.4401 7.62992 12.9401 10.1199 14.0001C10.7099 14.2701 11.1699 14.4201 11.5299 14.5301C12.1199 14.7201 12.6599 14.6901 13.0899 14.6301C13.5699 14.5601 14.5499 14.0301 14.7599 13.4501C14.9699 12.8701 14.9699 12.3801 14.9099 12.2701C14.8399 12.1701 14.6799 12.1101 14.4299 12.0001C14.1799 11.8601 12.9599 11.2601 12.7399 11.1801C12.5099 11.1001 12.3699 11.0601 12.1799 11.3001C12.0199 11.5501 11.5399 12.1101 11.3999 12.2701C11.2499 12.4401 11.1099 12.4601 10.8699 12.3401C10.6099 12.2101 9.80992 11.9501 8.86992 11.1101C8.12992 10.4501 7.63992 9.64005 7.48992 9.39005C7.36992 9.15005 7.47992 9.00005 7.59992 8.89005C7.70992 8.78005 7.86992 8.60005 7.96992 8.45005C8.09992 8.31005 8.13992 8.20005 8.21992 8.04005C8.29992 7.87005 8.25992 7.73005 8.19992 7.61005C8.13992 7.50005 7.63992 6.26005 7.42992 5.77005C7.22992 5.29005 7.02992 5.35005 6.86992 5.34005C6.72992 5.34005 6.56992 5.33005 6.39992 5.33005Z" fill="white"/>
</svg>
